# xmcd CD database file
#
# Track frame offsets:
#	150
#	13135
#	32954
#	52156
#	65502
#	82829
#	86677
#	103016
#	120118
#	136287
#	153667
#	175519
#
# Disc length: 2477 seconds
#
# Revision: 1
# Processed by: cddbd v1.5.1PL2 Copyright (c) Steve Scherf et al.
# Submitted via: NeoAudio 9.9.9
#
DISCID=9509ab0c
DTITLE=Cato Salsa Experience - No. 3
DYEAR=2006
DGENRE=Other
TTITLE0=Burn A Hole In The Sky
TTITLE1=It's Gonna Be Easy
TTITLE2=What A Day That Was
TTITLE3=Milk For Revolution
TTITLE4=Take It Home
TTITLE5=(Wascha Raj)
TTITLE6=Keep On Running
TTITLE7=Drop The Anchor
TTITLE8=Counting Down Your Dreams
TTITLE9=Big Buck
TTITLE10=Evil Man
TTITLE11=There's No Other Place
EXTD=YEAR: 2006
EXTT0=
EXTT1=
EXTT2=
EXTT3=
EXTT4=
EXTT5=
EXTT6=
EXTT7=
EXTT8=
EXTT9=
EXTT10=
EXTT11=
PLAYORDER=
